# xmcd
#
# Track frame offsets: 
#        150
#        14628
#        28009
#        40956
#        54175
#        69342
#        87309
#        103483
#        118339
#        135352
#        153440
#        173634
#        191857
#        206003
#        219861
#        236345
#        247910
#        263142
#
# Disc length: 3717 seconds
#
# Revision: 0
# Processed by: cddbd v1.5.2PL0 Copyright (c) Steve Scherf et al.
# Submitted via: ExactAudioCopy v0.99pb4
#
DISCID=f90e8312
DTITLE=Various Artist - Liedjes Met Een Lach En Een Traan - Vol. 1
DYEAR=2009
DGENRE=Chanson
TTITLE0=Johnny Hoes - Och Was Ik Maar...
TTITLE1=Noordzee Duo - De Laatste Dans
TTITLE2=Zangeres Zonder Naam - Ach Vaderlief...
TTITLE3=Herman Lippinkhof and Josefien Velberg - 'n Engel
TTITLE4=Hepie &Hepie - 'k Lig Op M'n Kussen Stil Te Dromen
TTITLE5=Arne Jansen - Ach Margrietje
TTITLE6=Renee De Haan - Vuile Huichelaar
TTITLE7=Johnny and Anja - Jaren Komen En Jaren Gaan
TTITLE8=Bennie Neyman - Vrijgezel
TTITLE9=Ludi and Hille - Kinderen
TTITLE10=Hanny - Laat Me, Laat Me Alleen
TTITLE11=Arie Ribbens - De Wip-Expres
TTITLE12=Radi Ensemble - Huil Maar Niet Kleine Eva
TTITLE13=Koos Alberts - Kleine Vogel
TTITLE14=Peter Beense and Harry Slinger - 'n Goede Vriend
TTITLE15=Jerry and Mary - De Bedelaar Van Parijs
TTITLE16=Eddy Wally - Met Gesloten Ogen
TTITLE17=Corry Konings - Ik Krijg Een Heel Apart Gevoel
EXTD=
EXTT0=
EXTT1=
EXTT2=
EXTT3=
EXTT4=
EXTT5=
EXTT6=
EXTT7=
EXTT8=
EXTT9=
EXTT10=
EXTT11=
EXTT12=
EXTT13=
EXTT14=
EXTT15=
EXTT16=
EXTT17=
PLAYORDER=
